<mxfile host="app.diagrams.net" modified="2021-03-15T17:26:45.894Z" agent="5.0 (Windows NT 10.0; Win64; x64) AppleWebKit/537.36 (KHTML, like Gecko) Chrome/89.0.4389.82 Safari/537.36" etag="zjo0-ldsaYL4oBPdIAds" version="14.4.8" type="github">
  <diagram id="OBwis4T9JAHcPimvQfCM" name="第 1 页">
    <mxGraphModel dx="1185" dy="667" grid="1" gridSize="10" guides="1" tooltips="1" connect="1" arrows="1" fold="1" page="1" pageScale="1" pageWidth="827" pageHeight="1169" math="0" shadow="0">
      <root>
        <mxCell id="0" />
        <mxCell id="1" parent="0" />
        <mxCell id="9UC7FJYAztInpqv8X_Li-3" value="" style="rounded=0;whiteSpace=wrap;html=1;dashed=1;strokeWidth=3;fillColor=none;" vertex="1" parent="1">
          <mxGeometry x="320" y="210" width="120" height="170" as="geometry" />
        </mxCell>
        <mxCell id="9UC7FJYAztInpqv8X_Li-5" value="" style="rounded=0;whiteSpace=wrap;html=1;strokeWidth=3;dashed=1;dashPattern=1 4;fillColor=#6666FF;strokeColor=none;" vertex="1" parent="1">
          <mxGeometry x="389" y="210" width="50" height="170" as="geometry" />
        </mxCell>
        <mxCell id="9UC7FJYAztInpqv8X_Li-1" value="" style="rounded=0;whiteSpace=wrap;html=1;strokeWidth=3;fillColor=none;" vertex="1" parent="1">
          <mxGeometry x="390" y="210" width="120" height="170" as="geometry" />
        </mxCell>
        <mxCell id="9UC7FJYAztInpqv8X_Li-6" value="" style="rounded=0;whiteSpace=wrap;html=1;strokeWidth=3;fillColor=none;" vertex="1" parent="1">
          <mxGeometry x="390" y="430" width="120" height="170" as="geometry" />
        </mxCell>
        <mxCell id="9UC7FJYAztInpqv8X_Li-7" value="" style="rounded=0;whiteSpace=wrap;html=1;dashed=1;strokeWidth=3;fillColor=none;" vertex="1" parent="1">
          <mxGeometry x="590" y="360" width="120" height="170" as="geometry" />
        </mxCell>
        <mxCell id="9UC7FJYAztInpqv8X_Li-8" value="" style="rounded=0;whiteSpace=wrap;html=1;dashed=1;dashPattern=1 4;strokeWidth=3;fillColor=#6666FF;strokeColor=none;" vertex="1" parent="1">
          <mxGeometry x="390" y="460" width="60" height="140" as="geometry" />
        </mxCell>
        <mxCell id="9UC7FJYAztInpqv8X_Li-9" value="" style="rounded=0;whiteSpace=wrap;html=1;strokeWidth=3;fillColor=none;rotation=-60;" vertex="1" parent="1">
          <mxGeometry x="639" y="301" width="120" height="170" as="geometry" />
        </mxCell>
        <mxCell id="9UC7FJYAztInpqv8X_Li-10" value="" style="rounded=0;whiteSpace=wrap;html=1;dashed=1;dashPattern=1 4;strokeWidth=3;fillColor=#6666FF;rotation=30;strokeColor=none;" vertex="1" parent="1">
          <mxGeometry x="599.67" y="383.3" width="108.33" height="40" as="geometry" />
        </mxCell>
        <mxCell id="9UC7FJYAztInpqv8X_Li-13" value="" style="verticalLabelPosition=bottom;verticalAlign=top;html=1;shape=mxgraph.basic.orthogonal_triangle;dashed=1;dashPattern=1 4;strokeWidth=3;fillColor=#6666FF;rotation=-180;strokeColor=none;" vertex="1" parent="1">
          <mxGeometry x="618" y="361" width="90" height="50" as="geometry" />
        </mxCell>
        <mxCell id="9UC7FJYAztInpqv8X_Li-14" value="" style="verticalLabelPosition=bottom;verticalAlign=top;html=1;shape=mxgraph.basic.orthogonal_triangle;dashed=1;dashPattern=1 4;strokeWidth=3;fillColor=#6666FF;rotation=30;strokeColor=none;" vertex="1" parent="1">
          <mxGeometry x="697.77" y="420.3" width="22.79" height="36.49" as="geometry" />
        </mxCell>
        <mxCell id="9UC7FJYAztInpqv8X_Li-15" value="" style="rounded=0;whiteSpace=wrap;html=1;dashed=1;strokeWidth=3;fillColor=none;" vertex="1" parent="1">
          <mxGeometry x="330" y="460" width="120" height="170" as="geometry" />
        </mxCell>
      </root>
    </mxGraphModel>
  </diagram>
</mxfile>
